<?xml version="1.0" encoding="UTF-8"?>
<svg width="44px" height="44px" viewBox="0 0 44 44" version="1.1" xmlns="http://www.w3.org/2000/svg" xmlns:xlink="http://www.w3.org/1999/xlink">
    <!-- Generator: Sketch 46.2 (44496) - http://www.bohemiancoding.com/sketch -->
    <title>like-sel</title>
    <desc>Created with Sketch.</desc>
    <defs></defs>
    <g id="Symbols" stroke="none" stroke-width="1" fill="none" fill-rule="evenodd">
        <g id="like-sel" fill-rule="nonzero" fill="#03A699">
            <g id="like" transform="translate(1.000000, 3.000000)">
                <path d="M30.1856273,0 C26.571771,0 23.2116541,1.81047864 21.0000292,4.79598461 C18.7896906,1.80977797 15.4302753,0 11.8144896,0 C5.29999513,0 0,5.78696869 0,12.9008354 C0,17.1446903 1.89825091,20.1218466 3.42419488,22.5138832 C7.85890378,29.4619242 19.0094616,38.1085114 19.4817442,38.4730361 C19.9366626,38.8243064 20.4686382,39 20.9993276,39 C21.5313033,39 22.0624604,38.8243648 22.5169695,38.4730361 C22.9898368,38.1085114 34.1409793,29.4619242 38.5744604,22.5138832 C40.101106,20.1218466 42,17.1446903 42,12.9008354 C41.9999415,5.78702708 36.6999464,0 30.1855104,0 L30.1856273,0 Z" id="爱心"></path>
            </g>
        </g>
    </g>
</svg>