<?xml version="1.0" encoding="UTF-8" standalone="no"?>
<svg width="44px" height="44px" viewBox="0 0 44 44" version="1.1" xmlns="http://www.w3.org/2000/svg" xmlns:xlink="http://www.w3.org/1999/xlink">
    <!-- Generator: Sketch 46.2 (44496) - http://www.bohemiancoding.com/sketch -->
    <title>ico/like</title>
    <desc>Created with Sketch.</desc>
    <defs></defs>
    <g id="Symbols" stroke="none" stroke-width="1" fill="none" fill-rule="evenodd">
        <g id="ico/like" fill="#03A699">
            <path d="M31.1856273,3 C27.571771,3 24.2116541,4.81047864 22.0000292,7.79598461 C19.7896906,4.80977797 16.4302753,3 12.8144896,3 C6.29999513,3 1,8.78696869 1,15.9008354 C1,20.1446903 2.89825091,23.1218466 4.42419488,25.5138832 C8.85890378,32.4619242 20.0094616,41.1085114 20.4817442,41.4730361 C20.9366626,41.8243064 21.4686382,42 21.9993276,42 C22.5313033,42 23.0624604,41.8243648 23.5169695,41.4730361 C23.9898368,41.1085114 35.1409793,32.4619242 39.5744604,25.5138832 C41.101106,23.1218466 43,20.1446903 43,15.9008354 C42.9999415,8.78702708 37.6999464,3 31.1855104,3 L31.1856273,3 Z M37.4173252,23.8719746 C33.1959562,30.4876634 21.9993276,39.1285868 21.9993276,39.1285868 C21.9993276,39.1285868 10.8039854,30.487605 6.58133009,23.8719746 C5.02399026,21.429548 3.62953471,19.1081625 3.62953471,15.900777 C3.62953471,10.3623134 7.74133983,5.87065411 12.8144312,5.87065411 C16.5634592,5.87065411 19.7819732,8.32709416 21.2098124,11.8438848 L21.2098124,11.826368 L21.2136127,11.826368 C21.319961,12.1931116 21.6301194,12.4604764 21.9993276,12.4604764 C22.3697637,12.4604764 22.679922,12.1931699 22.7856273,11.826368 L22.7965018,11.826368 C24.2275566,8.32008743 27.4415688,5.8707125 31.1855104,5.8707125 C36.2573739,5.8707125 40.3704653,10.3623134 40.3704653,15.9008354 C40.3704653,19.1081625 38.9758928,21.429548 37.4172667,23.8719746 L37.4173252,23.8719746 L37.4173252,23.8719746 Z" id="爱心"></path>
        </g>
    </g>
</svg>