<?xml version="1.0" encoding="UTF-8" standalone="no"?>
<svg width="44px" height="44px" viewBox="0 0 44 44" version="1.1" xmlns="http://www.w3.org/2000/svg" xmlns:xlink="http://www.w3.org/1999/xlink">
    <!-- Generator: Sketch 46.2 (44496) - http://www.bohemiancoding.com/sketch -->
    <title>ico/lock</title>
    <desc>Created with Sketch.</desc>
    <defs></defs>
    <g id="Symbols" stroke="none" stroke-width="1" fill="none" fill-rule="evenodd" fill-opacity="0.8">
        <g id="ico/lock" fill="#000000">
            <path d="M34.5583958,16.3682465 L33.2144875,16.3682465 L33.2144875,11.1617127 C33.2144875,4.90107049 28.7535096,0 22.4161763,0 C16.0536949,0 11.7180242,5.00599897 11.7180242,11.1617127 L11.7180242,16.3682465 L10.3741158,16.3682465 C7.41059088,16.3682465 5,18.8148794 5,21.8238228 L5,38.18898 C5,41.1978691 7.41059088,43.6445021 10.3741158,43.6445021 L34.5583958,43.6445021 C37.5219749,43.6445021 39.9325116,41.1978691 39.9325116,38.18898 L39.9325116,21.8238228 C39.9325116,18.8148794 37.5219207,16.3682465 34.5583958,16.3682465 Z M14.4043233,11.1617127 C14.4043233,6.51282829 17.5354303,2.72857403 22.4161763,2.72857403 C27.2467886,2.72857403 30.5266708,6.43293956 30.5266708,11.1617127 L30.5266708,16.3682465 L14.4043233,16.3682465 L14.4043233,11.1617127 Z M37.2446949,38.18898 C37.2446949,39.6941833 36.0401854,40.917554 34.5583958,40.917554 L10.3741158,40.917554 C8.89232625,40.917554 7.68629913,39.6941833 7.68629913,38.18898 L7.68629913,21.8238228 C7.68629913,20.3185652 8.89232625,19.0952488 10.3741158,19.0952488 L34.5583958,19.0952488 C36.0401854,19.0952488 37.2446949,20.3185652 37.2446949,21.8238228 L37.2446949,38.18898 Z M22.4646841,24.5492533 C20.9813769,24.5492533 19.7784391,25.7725698 19.7784391,27.2793991 C19.7784391,28.2896609 20.3187991,29.1699545 21.1223475,29.6414281 L21.1223475,34.0992082 C21.1223475,34.8510511 21.7237893,35.4604059 22.4647383,35.4604059 C23.2071506,35.4604059 23.8086466,34.8510511 23.8086466,34.0992082 L23.8086466,29.6414281 C24.6121408,29.1699545 25.1525549,28.2880892 25.1525549,27.2793991 C25.1525549,25.7725698 23.9495629,24.5492533 22.4647383,24.5492533 L22.4646841,24.5492533 L22.4646841,24.5492533 Z" id="Page-1"></path>
        </g>
    </g>
</svg>