<?xml version="1.0" encoding="UTF-8" standalone="no"?>
<svg width="128px" height="128px" viewBox="0 0 128 128" version="1.1" xmlns="http://www.w3.org/2000/svg" xmlns:xlink="http://www.w3.org/1999/xlink">
    <!-- Generator: Sketch 46.2 (44496) - http://www.bohemiancoding.com/sketch -->
    <title>ico/ok</title>
    <desc>Created with Sketch.</desc>
    <defs></defs>
    <g id="Symbols" stroke="none" stroke-width="1" fill="none" fill-rule="evenodd">
        <g id="ico/ok" fill="#03A699">
            <path d="M63.1641568,83.7764587 C63.9076331,83.5562145 64.5840323,83.1529911 65.1312965,82.6035975 L93.7742981,53.9607479 C94.6513203,53.0853989 95.1438277,51.8968712 95.1429151,50.6576933 C95.1420025,49.4186676 94.6478219,48.2309004 93.769583,47.3567682 C91.94618,45.5338215 88.9908314,45.5324526 87.1656032,47.3537261 L61.35277,73.1665594 L44.6093435,56.4246539 C42.7835069,54.6080955 39.8315045,54.6129628 38.0115999,56.4356052 C36.1885011,58.2555098 36.1843944,61.2082727 38.0023217,63.0333488 L57.8451377,82.8761649 C59.2475214,84.2756586 61.3809089,84.6367496 63.1656779,83.7764587 L63.1641568,83.7764587 Z M64.3011219,126.602244 C29.8937455,126.602244 2,98.7084983 2,64.3011219 C2,29.8937455 29.8937455,2 64.3011219,2 C98.7084983,2 126.602244,29.8937455 126.602244,64.3011219 C126.602244,98.7084983 98.7084983,126.602244 64.3011219,126.602244 L64.3011219,126.602244 Z" id="Page-1"></path>
        </g>
    </g>
</svg>