<?xml version="1.0" encoding="UTF-8" standalone="no"?>
<svg width="44px" height="44px" viewBox="0 0 44 44" version="1.1" xmlns="http://www.w3.org/2000/svg" xmlns:xlink="http://www.w3.org/1999/xlink">
    <!-- Generator: Sketch 46.2 (44496) - http://www.bohemiancoding.com/sketch -->
    <title>ico/phone</title>
    <desc>Created with Sketch.</desc>
    <defs></defs>
    <g id="Symbols" stroke="none" stroke-width="1" fill="none" fill-rule="evenodd">
        <g id="ico/phone" fill-rule="nonzero" fill="#000000">
            <path d="M9.5903936,5.54374535 C9.28440272,5.79505372 9.02063011,6.01777113 8.51525211,6.44893521 L8.42957245,6.52203725 C7.97903627,6.90610024 7.78666154,7.06930173 7.53411018,7.28040442 C7.20562093,7.5549821 6.90952735,7.79663007 6.62077627,8.02456869 C5.5077672,8.90043061 4.9255359,9.9922491 4.77596174,11.4886533 C4.54965437,13.7359469 5.0386729,16.0490977 6.3697045,18.9986276 C8.67870641,24.1156855 12.2492783,28.6897944 17.2891288,32.9843943 C21.2522283,36.3615244 24.903562,38.4110924 28.7847459,39.4407915 C29.9130985,39.7389565 30.8671684,39.8835902 31.6993495,39.8835902 C32.3731555,39.8835902 32.9795047,39.7913046 33.5272463,39.6124686 C35.426101,38.7484725 37.0253794,37.6221346 38.2832879,36.2643397 C38.406219,36.1312732 38.5142352,36.0242404 38.5868079,35.9598071 C40.0729919,34.6319103 40.1720471,32.7681713 38.830677,31.2938181 C38.3188496,30.7286007 37.7444299,30.1207099 37.0206277,29.3784118 C36.2194585,28.5567807 35.2759119,28.1269963 34.2861672,28.1269963 C33.4156205,28.1269963 32.5433957,28.4655233 31.7588751,29.1128348 L31.5212189,29.3070628 C30.2427722,30.3518042 29.6906626,30.8157834 29.0349096,31.4149296 C28.112907,32.2576109 27.0799412,32.6098649 26.0515923,32.6098649 C25.5717937,32.6098649 25.0864123,32.5299209 24.6085075,32.3722165 C23.726504,32.0775356 23.3149941,31.9309334 22.8010019,31.7142714 C22.4131652,31.5507875 22.0558951,31.3790401 21.7190899,31.1910033 C18.7457372,29.5196799 16.2616249,27.1926229 14.11952,24.0749797 C12.9193994,22.3337731 12.1911075,20.665896 11.8979868,18.9803892 C11.5811607,17.1263802 12.2639165,15.7385305 13.5491627,14.7760137 C14.1478212,14.3313497 14.6131993,13.9414118 15.668625,13.0218903 L16.2507616,12.5166882 C17.7786429,11.1973477 17.8993221,9.19189618 16.5398909,7.72215675 C15.7550076,6.87378299 15.2215157,6.31105616 14.6848528,5.7705622 C13.9387347,5.02594574 12.9966054,4.61646575 12.0358694,4.61646575 C11.1544723,4.62328882 10.3199918,4.94209081 9.5903936,5.54374535 Z M12.0358694,2 C13.7367504,2.00005594 15.3747426,2.68616374 16.6520799,3.96232795 C17.2207786,4.53447967 17.7634747,5.10763295 18.5745204,5.98386068 C20.934918,8.53577288 20.7176498,12.1766807 18.0680904,14.4655541 C17.9216093,14.591709 17.7839443,14.7111424 17.5556313,14.909836 C17.5050694,14.9538414 17.5050694,14.9538414 17.4544828,14.9978703 C16.3883955,15.9257198 15.8720179,16.3573483 15.2215618,16.8406374 C14.6262644,17.2863372 14.4538232,17.7917414 14.5834934,18.5508703 C14.820742,19.9191981 15.4204018,21.2253099 16.3911409,22.6330962 C18.2571553,25.3493631 20.447149,27.4446943 23.0863102,28.9282708 C23.6170292,29.2243381 24.1885092,29.4556323 25.0686957,29.7545852 C25.1862505,29.7945124 25.2811345,29.8263303 25.4930083,29.8970817 C25.6878997,29.961406 25.8731894,29.9930076 26.0515336,29.9930076 C26.4426667,29.9930076 26.8075481,29.8388772 27.1589727,29.5179978 C27.8348284,28.9006049 28.4472609,28.3846933 29.6445611,27.4061272 L29.8786798,27.214808 C29.9329885,27.170418 29.9329885,27.170418 29.986449,27.1267068 C31.271426,26.0667435 32.7685989,25.5106984 34.2861085,25.5106984 C36.0197649,25.5106984 37.6879098,26.2361316 39.0072864,27.5894376 C39.7347335,28.3357023 40.3262109,28.9597985 40.8805702,29.5715142 C43.2025555,32.1246231 43.0114622,35.5784018 40.4231439,37.8915051 C40.4973054,37.8264806 39.8520238,38.5050995 39.4068857,38.9119582 C38.6330446,39.6192531 37.7228011,40.3079985 36.647122,40.9529669 C36.0022858,41.3396055 35.3153833,41.699025 34.5648002,42.0344748 C33.6569222,42.3508894 32.7068083,42.5 31.6993495,42.5 C30.5742337,42.5 29.3959312,42.3163534 28.0599299,41.9635688 C23.614754,40.7839363 19.6311869,38.4771341 15.4837415,34.9425172 C10.253626,30.4862752 6.37758335,25.5916459 3.87179919,20.0397838 C2.41257655,16.8057664 1.78344867,14.0477524 2.06597319,11.2378281 C2.28225573,9.07694951 3.20509877,7.33059351 4.89312728,6.00287347 C5.37889087,5.61938111 5.76970412,5.29252728 6.5999412,4.58426171 C7.21384466,4.06055015 7.48792279,3.82898726 7.81879205,3.55700853 C9.05684956,2.5369998 10.532217,2 12.0358694,2 Z" id="Page-1"></path>
        </g>
    </g>
</svg>