<?xml version="1.0" encoding="UTF-8" standalone="no"?>
<svg width="44px" height="44px" viewBox="0 0 44 44" version="1.1" xmlns="http://www.w3.org/2000/svg" xmlns:xlink="http://www.w3.org/1999/xlink">
    <!-- Generator: Sketch 46.2 (44496) - http://www.bohemiancoding.com/sketch -->
    <title>ico/search</title>
    <desc>Created with Sketch.</desc>
    <defs></defs>
    <g id="Symbols" stroke="none" stroke-width="1" fill="none" fill-rule="evenodd" opacity="0.9">
        <g id="ico/search" fill="#000000">
            <path d="M41.511312,39.1496603 L34.4164004,32.0454464 C37.1646356,28.7622533 38.6694215,24.6142823 38.6662964,20.3303386 C38.6662964,10.2222597 30.4413671,2 20.3331726,2 C10.2249293,2 2,10.2222108 2,20.3302897 C2,30.4383686 10.2249293,38.6606283 20.3331726,38.6606283 C24.7897648,38.6606283 28.8780831,37.0585865 32.059731,34.4051407 L39.1546914,41.5093056 C39.4665669,41.823397 39.8906531,42 40.3330017,42 C40.7753503,42 41.1994365,41.823397 41.511312,41.5093056 C41.8241641,41.1965833 42,40.7720907 42,40.3294585 C42,39.8868264 41.8241641,39.4623337 41.511312,39.1496114 L41.511312,39.1496603 Z M20.3331726,35.3230657 C12.0632711,35.3230657 5.33331299,28.5976781 5.33331299,20.3303386 C5.33331299,12.0629992 12.0632223,5.33761151 20.3331726,5.33761151 C28.6047343,5.33761151 35.3330322,12.0629992 35.3330322,20.3302897 C35.3330322,28.5975803 28.6047343,35.3230657 20.3331726,35.3230657 L20.3331726,35.3230657 Z" id="Page-1"></path>
        </g>
    </g>
</svg>