<?xml version="1.0" encoding="UTF-8" standalone="no"?>
<svg width="44px" height="44px" viewBox="0 0 44 44" version="1.1" xmlns="http://www.w3.org/2000/svg" xmlns:xlink="http://www.w3.org/1999/xlink">
    <!-- Generator: Sketch 46.2 (44496) - http://www.bohemiancoding.com/sketch -->
    <title>ico/share</title>
    <desc>Created with Sketch.</desc>
    <defs></defs>
    <g id="Symbols" stroke="none" stroke-width="1" fill="none" fill-rule="evenodd">
        <g id="ico/share" fill="#03A699">
            <path d="M35.9741837,36.0053425 C35.9741837,37.1081906 35.0789059,38.0031938 33.9757195,38.0031938 L6.99618971,38.0031938 C5.89300329,38.0031938 4.99772554,37.1081906 4.99772554,36.0053425 L4.99772554,11.0319381 C4.99772554,9.92914855 5.89300329,9.03408682 6.99618971,9.03408682 L19.9863532,9.03408682 L19.9863532,6.03728063 L4.99772554,6.03728063 C3.34294591,6.03728063 2,7.37881965 2,9.03408682 L2,38.0031938 C2,39.6574659 3.34294591,41 4.99772554,41 L35.9741837,41 C37.6299587,41 38.9719092,39.6574659 38.9719092,38.0031938 L38.9719092,28.0138789 L35.9741837,28.0138789 L35.9741837,36.0053425 Z M41.5609605,11.5014768 L33.4960834,3.43907308 C32.9105316,2.85364231 31.9622667,2.85364231 31.3767149,3.43907308 C30.7911631,4.02345029 30.7911631,4.9724194 31.3767149,5.55779164 L35.9932122,10.1728732 C25.468151,9.97211057 15.7854976,17.3602329 12.4070843,27.468425 L15.1799804,28.7990187 C18.1597313,19.792621 28.0861842,12.2456446 37.5789622,13.3185246 L31.4026523,19.4919454 C30.823131,20.0723425 30.823131,21.0132928 31.4026523,21.5936899 C31.9832274,22.1740869 32.9235296,22.1740869 33.5051,21.5936899 L41.3251238,13.7750108 C41.4041068,13.7220984 41.490994,13.6891453 41.5599651,13.6192003 C42.1465123,13.0358181 42.1465123,12.086849 41.5609605,11.5014768 L41.5609605,11.5014768 Z" id="Page-1"></path>
        </g>
    </g>
</svg>