<?xml version="1.0" encoding="UTF-8" standalone="no"?>
<svg width="24px" height="24px" viewBox="0 0 24 24" version="1.1" xmlns="http://www.w3.org/2000/svg" xmlns:xlink="http://www.w3.org/1999/xlink">
    <!-- Generator: Sketch 46.2 (44496) - http://www.bohemiancoding.com/sketch -->
    <title>ico/star</title>
    <desc>Created with Sketch.</desc>
    <defs></defs>
    <g id="Symbols" stroke="none" stroke-width="1" fill="none" fill-rule="evenodd">
        <g id="ico/star" fill="#03A699">
            <path d="M22.9179753,9.20160427 C22.7280492,8.6346318 22.2392635,8.21950029 21.6511142,8.12934273 L15.9267448,7.25055289 L13.4378578,1.91835494 C13.1766633,1.35834211 12.6162398,1 11.9997802,1 C11.3841513,1 10.8234202,1.35834211 10.5615487,1.91835494 L8.07343093,7.25052111 L2.34841532,8.12934273 C1.7603584,8.21946851 1.27151109,8.63460002 1.08241587,9.20157249 C0.892889834,9.76972079 1.03613447,10.3955801 1.45146697,10.8231373 L5.64645758,15.1471723 L4.67344034,21.1447946 C4.57475386,21.7482814 4.82868613,22.3546918 5.32559576,22.7083624 C5.59879143,22.9016116 5.91965326,23 6.24066894,23 C6.50438677,23 6.76893545,22.933359 7.00951258,22.8010941 L11.9997802,20.0274702 L16.9908786,22.8010941 C17.2314249,22.933359 17.4959121,23 17.7591376,23 C18.0807071,23 18.4008612,22.9016116 18.6747646,22.7083624 C19.1714896,22.3546918 19.4247757,21.7482814 19.3266739,21.1447946 L18.3531951,15.1471723 L22.5488627,10.8231373 C22.9641952,10.3955801 23.1066397,9.76972079 22.9179753,9.20160427 Z" id="Page-1-Copy-7"></path>
        </g>
    </g>
</svg>