<?xml version="1.0" encoding="UTF-8" standalone="no"?>
<svg width="36px" height="36px" viewBox="0 0 36 36" version="1.1" xmlns="http://www.w3.org/2000/svg" xmlns:xlink="http://www.w3.org/1999/xlink">
    <!-- Generator: Sketch 46.2 (44496) - http://www.bohemiancoding.com/sketch -->
    <title>ico/vip</title>
    <desc>Created with Sketch.</desc>
    <defs></defs>
    <g id="Symbols" stroke="none" stroke-width="1" fill="none" fill-rule="evenodd">
        <g id="ico/vip" fill="#FFDB00">
            <path d="M1,17.8044421 C1,8.52359815 8.52359815,1 17.8044421,1 C27.085286,1 34.6088841,8.52359815 34.6088841,17.8044421 C34.6088841,27.085286 27.085286,34.6088841 17.8044421,34.6088841 C8.52359815,34.6088841 1,27.085286 1,17.8044421 Z M8.26455702,11.8316445 L8.26455702,12.9930218 C9.62737429,12.9930218 10.5991683,13.7751504 11.1798569,15.327633 L16.7141636,26.9769761 L18.8947205,26.9769761 L24.2868294,15.1735786 C24.7727059,13.7159082 25.7918855,12.9930218 27.3443271,12.9930218 L27.3443271,11.8316445 L19.9139001,11.8316445 L19.9139001,12.9930218 C22.3432825,13.0996906 23.1254521,14.0595869 22.2485113,15.9083217 L19.3332114,22.4618079 L15.9794206,15.0313399 C15.3987319,13.7751504 15.5409297,13.0878339 16.4179115,12.9930218 L17.7333432,12.9930218 L17.7333432,11.8316445 L8.26455702,11.8316445 Z" id="Combined-Shape"></path>
        </g>
    </g>
</svg>