<?xml version="1.0" encoding="UTF-8" standalone="no"?>
<svg width="128px" height="128px" viewBox="0 0 128 128" version="1.1" xmlns="http://www.w3.org/2000/svg" xmlns:xlink="http://www.w3.org/1999/xlink">
    <!-- Generator: Sketch 46.2 (44496) - http://www.bohemiancoding.com/sketch -->
    <title>ico/warn</title>
    <desc>Created with Sketch.</desc>
    <defs></defs>
    <g id="Symbols" stroke="none" stroke-width="1" fill="none" fill-rule="evenodd">
        <g id="ico/warn" fill="#03A699">
            <path d="M121.106772,39.9005561 C117.839842,32.3607379 113.412923,25.7929334 107.800117,20.1842864 C102.186659,14.5756394 95.6265769,10.1399832 88.1197072,6.88903471 C80.6134891,3.62539289 72.5735324,2 63.9996743,2 C55.4264676,2 47.3865109,3.62539289 39.8796413,6.88903471 C32.3734231,10.1533275 25.813341,14.5756394 20.1998834,20.1842864 C14.5864258,25.7929334 10.146965,32.3607379 6.89322811,39.9005561 C3.62678702,47.4410251 2,55.5009429 2,64.0532956 C2,72.6191552 3.62678702,80.6522218 6.89322811,88.1526582 C10.1603207,95.6530945 14.5864258,102.207067 20.1998834,107.815551 C25.813341,113.424198 32.3734231,117.860668 39.8796413,121.110965 C47.3865109,124.375095 55.4264676,126 63.9996743,126 C72.5735324,126 80.6134891,124.375095 88.1197072,121.110965 C95.6265769,117.847323 102.186659,113.424198 107.800117,107.815551 C113.412923,102.207067 117.853198,95.6530945 121.106772,88.1526582 C124.373213,80.6522218 126,72.6191552 126,64.0532956 C126,55.5009429 124.373213,47.4410251 121.106772,39.9005561 Z M63.9995936,104 C60.1273673,104 57,100.859807 57,97.0000813 C57,93.1276751 60.1406974,90 63.9995936,90 C67.85914,90 71,93.1410058 71,97.0000813 C71,100.859807 67.8724701,104 63.9995936,104 Z M71,74.9867791 C71,78.866454 67.85914,82 63.9995936,82 C60.1406974,82 57,78.8530983 57,74.9867791 L57,31.0132209 C57,27.1333831 60.1406974,24 63.9995936,24 C67.85914,24 71,27.1469017 71,31.0132209 L71,74.9867791 Z" id="Page-1"></path>
        </g>
    </g>
</svg>